<mxfile host="app.diagrams.net" agent="Mozilla/5.0 (Windows NT 10.0; Win64; x64) AppleWebKit/537.36 (KHTML, like Gecko) Chrome/133.0.0.0 Safari/537.36 Edg/133.0.0.0" version="26.0.16">
  <diagram name="Page-1" id="7bkrAwKdLy2IX1kf110i">
    <mxGraphModel dx="1113" dy="816" grid="1" gridSize="10" guides="1" tooltips="1" connect="1" arrows="1" fold="1" page="1" pageScale="1" pageWidth="850" pageHeight="1100" math="0" shadow="0">
      <root>
        <mxCell id="0" />
        <mxCell id="1" parent="0" />
        <mxCell id="WNlZ0a1UJs0GPVW7eMXR-13" value="" style="rounded=0;whiteSpace=wrap;html=1;" vertex="1" parent="1">
          <mxGeometry x="35" y="310" width="290" height="250" as="geometry" />
        </mxCell>
        <mxCell id="WNlZ0a1UJs0GPVW7eMXR-3" value="" style="rounded=0;whiteSpace=wrap;html=1;" vertex="1" parent="1">
          <mxGeometry x="390" y="310" width="440" height="250" as="geometry" />
        </mxCell>
        <mxCell id="WNlZ0a1UJs0GPVW7eMXR-4" value="DPU K8s Control-Plane" style="text;html=1;align=center;verticalAlign=middle;whiteSpace=wrap;rounded=0;" vertex="1" parent="1">
          <mxGeometry x="45" y="310" width="130" height="30" as="geometry" />
        </mxCell>
        <mxCell id="WNlZ0a1UJs0GPVW7eMXR-34" style="edgeStyle=orthogonalEdgeStyle;rounded=0;orthogonalLoop=1;jettySize=auto;html=1;exitX=1;exitY=0.5;exitDx=0;exitDy=0;" edge="1" parent="1" source="WNlZ0a1UJs0GPVW7eMXR-5" target="WNlZ0a1UJs0GPVW7eMXR-14">
          <mxGeometry relative="1" as="geometry" />
        </mxCell>
        <mxCell id="WNlZ0a1UJs0GPVW7eMXR-5" value="SNAP Controller" style="rounded=1;whiteSpace=wrap;html=1;fillColor=#d5e8d4;strokeColor=#82b366;" vertex="1" parent="1">
          <mxGeometry x="60" y="430" width="100" height="40" as="geometry" />
        </mxCell>
        <mxCell id="WNlZ0a1UJs0GPVW7eMXR-35" style="edgeStyle=orthogonalEdgeStyle;rounded=0;orthogonalLoop=1;jettySize=auto;html=1;exitX=1;exitY=0.5;exitDx=0;exitDy=0;" edge="1" parent="1" source="WNlZ0a1UJs0GPVW7eMXR-6">
          <mxGeometry relative="1" as="geometry">
            <mxPoint x="260" y="400" as="targetPoint" />
            <Array as="points">
              <mxPoint x="261" y="509" />
            </Array>
          </mxGeometry>
        </mxCell>
        <mxCell id="WNlZ0a1UJs0GPVW7eMXR-50" style="edgeStyle=orthogonalEdgeStyle;rounded=0;orthogonalLoop=1;jettySize=auto;html=1;exitX=0.5;exitY=1;exitDx=0;exitDy=0;entryX=0;entryY=0.7;entryDx=0;entryDy=0;" edge="1" parent="1" source="WNlZ0a1UJs0GPVW7eMXR-6" target="WNlZ0a1UJs0GPVW7eMXR-27">
          <mxGeometry relative="1" as="geometry" />
        </mxCell>
        <mxCell id="WNlZ0a1UJs0GPVW7eMXR-6" value="Storage Vendor CSI Controller" style="rounded=1;whiteSpace=wrap;html=1;fillColor=#fff2cc;strokeColor=#d6b656;" vertex="1" parent="1">
          <mxGeometry x="60" y="489" width="100" height="40" as="geometry" />
        </mxCell>
        <mxCell id="WNlZ0a1UJs0GPVW7eMXR-7" value="" style="rounded=1;whiteSpace=wrap;html=1;fillColor=#d5e8d4;strokeColor=#82b366;" vertex="1" parent="1">
          <mxGeometry x="56" y="358" width="100" height="40" as="geometry" />
        </mxCell>
        <mxCell id="WNlZ0a1UJs0GPVW7eMXR-8" value="" style="rounded=1;whiteSpace=wrap;html=1;fillColor=#d5e8d4;strokeColor=#82b366;" vertex="1" parent="1">
          <mxGeometry x="60" y="362" width="100" height="40" as="geometry" />
        </mxCell>
        <mxCell id="WNlZ0a1UJs0GPVW7eMXR-37" style="edgeStyle=orthogonalEdgeStyle;rounded=0;orthogonalLoop=1;jettySize=auto;html=1;exitX=1;exitY=0.5;exitDx=0;exitDy=0;" edge="1" parent="1" source="WNlZ0a1UJs0GPVW7eMXR-9" target="WNlZ0a1UJs0GPVW7eMXR-14">
          <mxGeometry relative="1" as="geometry" />
        </mxCell>
        <mxCell id="WNlZ0a1UJs0GPVW7eMXR-9" value="DPF Controllers" style="rounded=1;whiteSpace=wrap;html=1;fillColor=#d5e8d4;strokeColor=#82b366;" vertex="1" parent="1">
          <mxGeometry x="64" y="368" width="100" height="40" as="geometry" />
        </mxCell>
        <mxCell id="WNlZ0a1UJs0GPVW7eMXR-14" value="K8s API Server" style="rounded=1;whiteSpace=wrap;html=1;fillColor=#dae8fc;strokeColor=#6c8ebf;" vertex="1" parent="1">
          <mxGeometry x="210.41" y="358" width="100" height="40" as="geometry" />
        </mxCell>
        <mxCell id="WNlZ0a1UJs0GPVW7eMXR-16" value="DPU Host(worker node)" style="text;html=1;align=center;verticalAlign=middle;whiteSpace=wrap;rounded=0;" vertex="1" parent="1">
          <mxGeometry x="405" y="318" width="130" height="30" as="geometry" />
        </mxCell>
        <mxCell id="WNlZ0a1UJs0GPVW7eMXR-36" style="edgeStyle=orthogonalEdgeStyle;rounded=0;orthogonalLoop=1;jettySize=auto;html=1;exitX=0;exitY=0.5;exitDx=0;exitDy=0;entryX=1;entryY=0.5;entryDx=0;entryDy=0;" edge="1" parent="1" source="WNlZ0a1UJs0GPVW7eMXR-17" target="WNlZ0a1UJs0GPVW7eMXR-14">
          <mxGeometry relative="1" as="geometry" />
        </mxCell>
        <mxCell id="WNlZ0a1UJs0GPVW7eMXR-17" value="Kubelet" style="rounded=1;whiteSpace=wrap;html=1;fillColor=#dae8fc;strokeColor=#6c8ebf;" vertex="1" parent="1">
          <mxGeometry x="435" y="358" width="100" height="40" as="geometry" />
        </mxCell>
        <mxCell id="WNlZ0a1UJs0GPVW7eMXR-18" value="SNAP Node Driver" style="rounded=1;whiteSpace=wrap;html=1;fillColor=#d5e8d4;strokeColor=#82b366;" vertex="1" parent="1">
          <mxGeometry x="435" y="420" width="100" height="40" as="geometry" />
        </mxCell>
        <mxCell id="WNlZ0a1UJs0GPVW7eMXR-19" value="" style="rounded=1;whiteSpace=wrap;html=1;fillColor=#fff2cc;strokeColor=#d6b656;" vertex="1" parent="1">
          <mxGeometry x="435" y="489" width="100" height="40" as="geometry" />
        </mxCell>
        <mxCell id="WNlZ0a1UJs0GPVW7eMXR-21" value="" style="rounded=1;whiteSpace=wrap;html=1;fillColor=#fff2cc;strokeColor=#d6b656;" vertex="1" parent="1">
          <mxGeometry x="438" y="493" width="100" height="40" as="geometry" />
        </mxCell>
        <mxCell id="WNlZ0a1UJs0GPVW7eMXR-42" style="edgeStyle=orthogonalEdgeStyle;rounded=0;orthogonalLoop=1;jettySize=auto;html=1;exitX=1;exitY=0.5;exitDx=0;exitDy=0;entryX=0;entryY=0.5;entryDx=0;entryDy=0;" edge="1" parent="1" source="WNlZ0a1UJs0GPVW7eMXR-20" target="WNlZ0a1UJs0GPVW7eMXR-25">
          <mxGeometry relative="1" as="geometry" />
        </mxCell>
        <mxCell id="WNlZ0a1UJs0GPVW7eMXR-20" value="Storage Vendor DPU Plugin" style="rounded=1;whiteSpace=wrap;html=1;fillColor=#fff2cc;strokeColor=#d6b656;" vertex="1" parent="1">
          <mxGeometry x="442" y="498" width="100" height="40" as="geometry" />
        </mxCell>
        <mxCell id="WNlZ0a1UJs0GPVW7eMXR-22" value="" style="rounded=1;whiteSpace=wrap;html=1;fillColor=#d5e8d4;strokeColor=#82b366;" vertex="1" parent="1">
          <mxGeometry x="686" y="370" width="100" height="40" as="geometry" />
        </mxCell>
        <mxCell id="WNlZ0a1UJs0GPVW7eMXR-23" value="" style="rounded=1;whiteSpace=wrap;html=1;fillColor=#d5e8d4;strokeColor=#82b366;" vertex="1" parent="1">
          <mxGeometry x="691" y="374" width="100" height="40" as="geometry" />
        </mxCell>
        <mxCell id="WNlZ0a1UJs0GPVW7eMXR-24" value="SNAP" style="rounded=1;whiteSpace=wrap;html=1;fillColor=#d5e8d4;strokeColor=#82b366;" vertex="1" parent="1">
          <mxGeometry x="695" y="379" width="100" height="40" as="geometry" />
        </mxCell>
        <mxCell id="WNlZ0a1UJs0GPVW7eMXR-52" style="edgeStyle=orthogonalEdgeStyle;rounded=0;orthogonalLoop=1;jettySize=auto;html=1;exitX=1;exitY=0.5;exitDx=0;exitDy=0;entryX=1;entryY=0.7;entryDx=0;entryDy=0;" edge="1" parent="1" source="WNlZ0a1UJs0GPVW7eMXR-25" target="WNlZ0a1UJs0GPVW7eMXR-27">
          <mxGeometry relative="1" as="geometry" />
        </mxCell>
        <mxCell id="WNlZ0a1UJs0GPVW7eMXR-25" value="Storage Vendor xDex" style="rounded=0;whiteSpace=wrap;html=1;fillColor=#fff2cc;strokeColor=#d6b656;" vertex="1" parent="1">
          <mxGeometry x="706" y="408" width="80" height="30" as="geometry" />
        </mxCell>
        <mxCell id="WNlZ0a1UJs0GPVW7eMXR-27" value="Remote Storage Vendor" style="shape=datastore;whiteSpace=wrap;html=1;fillColor=#fff2cc;strokeColor=#d6b656;" vertex="1" parent="1">
          <mxGeometry x="702.5" y="630" width="85" height="100" as="geometry" />
        </mxCell>
        <mxCell id="WNlZ0a1UJs0GPVW7eMXR-29" value="" style="image;sketch=0;aspect=fixed;html=1;points=[];align=center;fontSize=12;image=img/lib/mscae/Kubernetes.svg;" vertex="1" parent="1">
          <mxGeometry x="290" y="318" width="27.08" height="26" as="geometry" />
        </mxCell>
        <mxCell id="WNlZ0a1UJs0GPVW7eMXR-67" style="edgeStyle=orthogonalEdgeStyle;rounded=0;orthogonalLoop=1;jettySize=auto;html=1;dashed=1;dashPattern=8 8;" edge="1" parent="1" source="WNlZ0a1UJs0GPVW7eMXR-30" target="WNlZ0a1UJs0GPVW7eMXR-27">
          <mxGeometry relative="1" as="geometry">
            <Array as="points">
              <mxPoint x="724" y="600" />
              <mxPoint x="745" y="600" />
            </Array>
          </mxGeometry>
        </mxCell>
        <mxCell id="WNlZ0a1UJs0GPVW7eMXR-30" value="&lt;font style=&quot;font-size: 10px;&quot;&gt;Vol 1b&lt;/font&gt;" style="shape=cylinder;whiteSpace=wrap;html=1;boundedLbl=1;backgroundOutline=1;" vertex="1" parent="1">
          <mxGeometry x="706" y="438" width="35" height="30" as="geometry" />
        </mxCell>
        <mxCell id="WNlZ0a1UJs0GPVW7eMXR-68" style="edgeStyle=orthogonalEdgeStyle;rounded=0;orthogonalLoop=1;jettySize=auto;html=1;exitX=0.5;exitY=1;exitDx=0;exitDy=0;dashed=1;dashPattern=8 8;" edge="1" parent="1" source="WNlZ0a1UJs0GPVW7eMXR-31" target="WNlZ0a1UJs0GPVW7eMXR-27">
          <mxGeometry relative="1" as="geometry">
            <Array as="points">
              <mxPoint x="769" y="600" />
              <mxPoint x="745" y="600" />
            </Array>
          </mxGeometry>
        </mxCell>
        <mxCell id="WNlZ0a1UJs0GPVW7eMXR-31" value="&lt;font style=&quot;font-size: 10px;&quot;&gt;Vol 2b&lt;/font&gt;" style="shape=cylinder;whiteSpace=wrap;html=1;boundedLbl=1;backgroundOutline=1;" vertex="1" parent="1">
          <mxGeometry x="751" y="438" width="35" height="30" as="geometry" />
        </mxCell>
        <mxCell id="WNlZ0a1UJs0GPVW7eMXR-38" style="edgeStyle=orthogonalEdgeStyle;rounded=0;orthogonalLoop=1;jettySize=auto;html=1;exitX=0.5;exitY=1;exitDx=0;exitDy=0;" edge="1" parent="1" source="WNlZ0a1UJs0GPVW7eMXR-18" target="WNlZ0a1UJs0GPVW7eMXR-20">
          <mxGeometry relative="1" as="geometry" />
        </mxCell>
        <mxCell id="WNlZ0a1UJs0GPVW7eMXR-43" value="SNAP API setup xDex" style="text;html=1;align=center;verticalAlign=middle;whiteSpace=wrap;rounded=0;shadow=0;fillColor=default;gradientColor=none;" vertex="1" parent="1">
          <mxGeometry x="600" y="503" width="80" height="30" as="geometry" />
        </mxCell>
        <mxCell id="WNlZ0a1UJs0GPVW7eMXR-48" style="edgeStyle=orthogonalEdgeStyle;rounded=0;orthogonalLoop=1;jettySize=auto;html=1;exitX=1;exitY=0.5;exitDx=0;exitDy=0;entryX=0;entryY=0.5;entryDx=0;entryDy=0;" edge="1" parent="1" source="WNlZ0a1UJs0GPVW7eMXR-18" target="WNlZ0a1UJs0GPVW7eMXR-24">
          <mxGeometry relative="1" as="geometry" />
        </mxCell>
        <mxCell id="WNlZ0a1UJs0GPVW7eMXR-49" value="SNAP API expose xDex" style="text;html=1;align=center;verticalAlign=middle;whiteSpace=wrap;rounded=0;shadow=0;fillColor=default;gradientColor=none;" vertex="1" parent="1">
          <mxGeometry x="570" y="377" width="80" height="34" as="geometry" />
        </mxCell>
        <mxCell id="WNlZ0a1UJs0GPVW7eMXR-39" value="gRPC/UDS" style="text;html=1;align=center;verticalAlign=middle;whiteSpace=wrap;rounded=0;fillColor=default;gradientColor=none;fontSize=10;" vertex="1" parent="1">
          <mxGeometry x="481" y="470" width="50" height="10" as="geometry" />
        </mxCell>
        <mxCell id="WNlZ0a1UJs0GPVW7eMXR-51" value="Create/Config/Delete" style="text;html=1;align=center;verticalAlign=middle;whiteSpace=wrap;rounded=0;shadow=0;fillColor=default;gradientColor=none;" vertex="1" parent="1">
          <mxGeometry x="95" y="630" width="80" height="30" as="geometry" />
        </mxCell>
        <mxCell id="WNlZ0a1UJs0GPVW7eMXR-56" value="Connect" style="text;html=1;align=center;verticalAlign=middle;whiteSpace=wrap;rounded=0;shadow=0;fillColor=default;gradientColor=none;" vertex="1" parent="1">
          <mxGeometry x="770" y="590" width="80" height="30" as="geometry" />
        </mxCell>
        <mxCell id="WNlZ0a1UJs0GPVW7eMXR-58" value="NV-Vol&lt;div&gt;NV-VolAtt&lt;/div&gt;" style="text;html=1;align=left;verticalAlign=middle;whiteSpace=wrap;rounded=0;shadow=0;fillColor=#bac8d3;strokeColor=#23445d;fontSize=8;" vertex="1" parent="1">
          <mxGeometry x="164" y="452.5" width="46" height="25" as="geometry" />
        </mxCell>
        <mxCell id="WNlZ0a1UJs0GPVW7eMXR-60" value="K8s-PVC&lt;div&gt;SV-VolAtt&lt;/div&gt;" style="text;html=1;align=left;verticalAlign=middle;whiteSpace=wrap;rounded=0;shadow=0;fillColor=#bac8d3;strokeColor=#23445d;fontSize=8;" vertex="1" parent="1">
          <mxGeometry x="164.41" y="513" width="46" height="25" as="geometry" />
        </mxCell>
        <mxCell id="WNlZ0a1UJs0GPVW7eMXR-61" value="NV-VolAtt" style="text;html=1;align=left;verticalAlign=middle;whiteSpace=wrap;rounded=0;shadow=0;fillColor=#bac8d3;strokeColor=#23445d;fontSize=8;" vertex="1" parent="1">
          <mxGeometry x="384" y="444.5" width="46" height="17.5" as="geometry" />
        </mxCell>
        <mxCell id="WNlZ0a1UJs0GPVW7eMXR-62" value="" style="endArrow=none;html=1;rounded=0;entryX=0;entryY=0.5;entryDx=0;entryDy=0;" edge="1" parent="1" target="WNlZ0a1UJs0GPVW7eMXR-18">
          <mxGeometry width="50" height="50" relative="1" as="geometry">
            <mxPoint x="260" y="440" as="sourcePoint" />
            <mxPoint x="470" y="390" as="targetPoint" />
          </mxGeometry>
        </mxCell>
        <mxCell id="WNlZ0a1UJs0GPVW7eMXR-69" value="SF1" style="text;html=1;align=center;verticalAlign=middle;whiteSpace=wrap;rounded=0;fillColor=default;gradientColor=none;fontSize=10;dashed=1;strokeColor=default;" vertex="1" parent="1">
          <mxGeometry x="715.5" y="550" width="59" height="20" as="geometry" />
        </mxCell>
        <mxCell id="WNlZ0a1UJs0GPVW7eMXR-70" value="K8s Component" style="rounded=1;whiteSpace=wrap;html=1;fillColor=#dae8fc;strokeColor=#6c8ebf;" vertex="1" parent="1">
          <mxGeometry x="890" y="190" width="100" height="40" as="geometry" />
        </mxCell>
        <mxCell id="WNlZ0a1UJs0GPVW7eMXR-71" value="Tenant Component" style="rounded=1;whiteSpace=wrap;html=1;" vertex="1" parent="1">
          <mxGeometry x="890" y="240" width="100" height="40" as="geometry" />
        </mxCell>
        <mxCell id="WNlZ0a1UJs0GPVW7eMXR-72" value="NVDIA Component" style="rounded=1;whiteSpace=wrap;html=1;fillColor=#d5e8d4;strokeColor=#82b366;" vertex="1" parent="1">
          <mxGeometry x="890" y="290" width="100" height="40" as="geometry" />
        </mxCell>
        <mxCell id="WNlZ0a1UJs0GPVW7eMXR-73" value="Storage Vendor Component" style="rounded=1;whiteSpace=wrap;html=1;fillColor=#fff2cc;strokeColor=#d6b656;" vertex="1" parent="1">
          <mxGeometry x="890" y="344" width="100" height="40" as="geometry" />
        </mxCell>
      </root>
    </mxGraphModel>
  </diagram>
</mxfile>
